<svg version="1.1" id="Layer_1" xmlns="http://www.w3.org/2000/svg" xmlns:xlink="http://www.w3.org/1999/xlink" x="0px" y="0px"
	 width="100%" viewBox="0 0 200 200" enable-background="new 0 0 200 200" xml:space="preserve">
<path fill="#EAE9E9" opacity="1.000000" stroke="none" 
	d="
M119.000000,201.000000 
	C79.357826,201.000000 40.215649,201.000000 1.036737,201.000000 
	C1.036737,134.399536 1.036737,67.799034 1.036737,1.099268 
	C67.558670,1.099268 134.117538,1.099268 200.838196,1.099268 
	C200.838196,67.666351 200.838196,134.333145 200.838196,201.000000 
	C173.799316,201.000000 146.649658,201.000000 119.000000,201.000000 
M83.931129,179.507126 
	C83.931129,179.507126 83.902390,179.533752 84.136627,180.252335 
	C85.504692,182.883240 86.555984,185.749420 88.301651,188.099884 
	C93.080292,194.534149 99.984634,194.597000 106.763855,192.895660 
	C112.267319,191.514496 115.732353,187.534729 116.253342,181.483063 
	C116.253342,181.483063 116.313766,181.511993 117.032715,181.111450 
	C118.063705,178.753494 119.094688,176.395554 120.748917,173.803238 
	C120.457733,169.532684 120.166550,165.262146 120.113068,160.318558 
	C121.058533,158.380707 121.800568,156.307571 122.983932,154.527908 
	C128.760361,145.840820 131.075378,136.551956 129.193634,126.106880 
	C127.582275,117.162758 125.606575,108.236725 132.172363,99.811539 
	C134.951065,96.245941 132.388016,92.103340 129.512238,88.598183 
	C124.219582,82.147209 123.293457,75.499855 129.883530,69.572708 
	C144.884476,56.080795 150.229980,30.639275 142.070633,14.191202 
	C140.947647,11.927391 137.916122,10.610329 135.768188,8.854954 
	C134.154358,10.918759 132.096054,12.771385 130.998856,15.080660 
	C123.886734,30.049580 117.006416,45.128559 109.936546,60.117901 
	C109.628479,60.771053 108.197037,61.183315 107.314529,61.143230 
	C106.927834,61.125668 106.201607,59.613411 106.329262,58.906181 
	C106.728447,56.694767 107.461121,54.543556 108.140144,52.096588 
	C101.106888,52.737743 108.526329,46.973263 104.718361,45.784454 
	C103.978165,47.400055 103.255821,48.976685 102.498932,50.628723 
	C101.162651,47.659489 99.846169,44.734234 98.529678,41.808983 
	C97.438538,44.361401 100.121544,47.415104 95.592232,48.320377 
	C95.342422,48.370304 91.783524,51.723000 94.132339,54.780128 
	C95.265327,56.254787 95.469231,58.443268 96.093826,60.308525 
	C95.677948,60.731514 95.262077,61.154507 94.846207,61.577499 
	C93.646004,60.638290 91.873955,59.950985 91.332420,58.721634 
	C84.521927,43.261036 74.346313,29.339134 70.246429,12.610600 
	C69.878967,11.111279 67.667183,9.227630 66.156647,9.076701 
	C64.602188,8.921384 62.374722,10.297905 61.312851,11.675565 
	C59.839760,13.586754 58.830669,16.035568 58.226192,18.407919 
	C53.217628,38.064842 57.630322,55.551041 72.137833,69.602921 
	C78.730347,75.988396 77.802681,81.853653 72.506561,88.593338 
	C68.616386,93.543854 67.433067,96.780281 70.682739,102.160156 
	C74.400635,108.315186 74.124229,114.559425 73.445503,121.291710 
	C72.752113,128.169510 71.980919,135.412659 73.416397,142.024124 
	C74.779106,148.300446 78.953629,153.966278 81.769798,160.765991 
	C81.546547,162.188385 81.323296,163.610764 80.861160,165.736649 
	C80.910423,168.156570 80.959686,170.576508 80.902199,173.718750 
	C81.868362,175.600601 82.834526,177.482452 83.839241,179.465454 
	C83.839241,179.465454 83.929146,179.525772 83.931129,179.507126 
z"/>
<path fill="#090808" opacity="1.000000" stroke="none" 
	d="
M81.891708,159.900558 
	C78.953629,153.966278 74.779106,148.300446 73.416397,142.024124 
	C71.980919,135.412659 72.752113,128.169510 73.445503,121.291710 
	C74.124229,114.559425 74.400635,108.315186 70.682739,102.160156 
	C67.433067,96.780281 68.616386,93.543854 72.506561,88.593338 
	C77.802681,81.853653 78.730347,75.988396 72.137833,69.602921 
	C57.630322,55.551041 53.217628,38.064842 58.226192,18.407919 
	C58.830669,16.035568 59.839760,13.586754 61.312851,11.675565 
	C62.374722,10.297905 64.602188,8.921384 66.156647,9.076701 
	C67.667183,9.227630 69.878967,11.111279 70.246429,12.610600 
	C74.346313,29.339134 84.521927,43.261036 91.332420,58.721634 
	C91.873955,59.950985 93.646004,60.638290 94.846207,61.577499 
	C95.262077,61.154507 95.677948,60.731514 96.093826,60.308525 
	C95.469231,58.443268 95.265327,56.254787 94.132339,54.780128 
	C91.783524,51.723000 95.342422,48.370304 95.592232,48.320377 
	C100.121544,47.415104 97.438538,44.361401 98.529678,41.808983 
	C99.846169,44.734234 101.162651,47.659489 102.498932,50.628723 
	C103.255821,48.976685 103.978165,47.400055 104.718361,45.784454 
	C108.526329,46.973263 101.106888,52.737743 108.140144,52.096588 
	C107.461121,54.543556 106.728447,56.694767 106.329262,58.906181 
	C106.201607,59.613411 106.927834,61.125668 107.314529,61.143230 
	C108.197037,61.183315 109.628479,60.771053 109.936546,60.117901 
	C117.006416,45.128559 123.886734,30.049580 130.998856,15.080660 
	C132.096054,12.771385 134.154358,10.918759 135.768188,8.854955 
	C137.916122,10.610329 140.947647,11.927391 142.070633,14.191202 
	C150.229980,30.639275 144.884476,56.080795 129.883530,69.572708 
	C123.293457,75.499855 124.219582,82.147209 129.512238,88.598183 
	C132.388016,92.103340 134.951065,96.245941 132.172363,99.811539 
	C125.606575,108.236725 127.582275,117.162758 129.193634,126.106880 
	C131.075378,136.551956 128.760361,145.840820 122.983932,154.527908 
	C121.800568,156.307571 121.058533,158.380707 119.651512,160.659668 
	C118.733543,161.023605 118.277138,161.046463 117.561958,160.857788 
	C116.612762,159.207153 115.922333,157.768021 115.086243,156.025284 
	C116.309448,156.136246 117.191376,156.216232 118.061195,156.295135 
	C118.180824,155.880539 118.385445,155.550125 118.345978,155.252045 
	C117.588539,149.531403 121.956543,141.809219 112.218491,139.519897 
	C111.741364,139.407745 111.512329,138.098190 111.229546,137.323654 
	C108.543785,129.967361 106.561127,129.380768 101.991608,133.471725 
	C98.759186,132.817535 94.904770,131.092224 94.071808,132.035370 
	C90.770294,135.773590 87.843857,139.838058 84.534615,143.640457 
	C82.499817,145.978470 82.259926,152.421524 84.081932,154.975204 
	C86.791985,158.773529 84.713554,160.360992 83.238144,162.481964 
	C82.754829,161.400391 82.323273,160.650482 81.891708,159.900558 
M127.567268,61.023575 
	C127.842606,60.724735 128.117950,60.425896 128.393295,60.127064 
	C127.876472,59.977753 127.359642,59.828445 126.780144,58.951836 
	C127.001419,58.533058 127.222687,58.114281 127.949532,57.387737 
	C127.630005,56.961891 127.310478,56.536045 126.495750,55.859657 
	C126.736855,55.054195 126.977951,54.248737 127.721733,53.099625 
	C127.473579,52.813290 127.225426,52.526951 126.140587,52.244072 
	C125.813713,51.435631 124.975220,50.350983 125.239403,49.861629 
	C127.774551,45.165722 130.495773,40.570271 133.163681,35.946037 
	C133.463776,36.097900 133.763885,36.249767 134.063980,36.401634 
	C133.698410,38.597496 133.332825,40.793354 132.931763,43.202427 
	C134.164841,42.857517 134.963699,42.634068 136.032639,42.335072 
	C135.512924,46.313366 135.038116,49.947868 134.529404,53.841900 
	C138.867661,53.568863 138.809845,49.686703 139.603195,47.130123 
	C142.415359,38.067772 142.398193,29.140036 136.970764,20.040201 
	C133.936783,25.174583 131.246170,29.527988 128.753906,33.992126 
	C124.955040,40.796604 121.608948,47.775543 121.227776,55.982155 
	C120.868057,56.660641 120.508339,57.339130 120.015160,58.729683 
	C120.604599,60.501827 121.194038,62.273975 121.922958,64.703972 
	C122.373581,65.060249 122.824211,65.416527 123.274834,65.772804 
	C123.449295,65.157616 123.623764,64.542427 124.530144,63.841808 
	C125.004242,63.727913 125.478333,63.614021 126.283127,63.623219 
	C126.148254,63.529541 126.013382,63.435863 126.059097,62.716171 
	C126.378014,62.156837 126.696930,61.597507 127.567268,61.023575 
M72.779282,42.723301 
	C74.330200,45.423538 75.881126,48.123772 77.401611,50.771015 
	C74.968811,52.537132 73.299072,59.252266 74.857567,61.292133 
	C75.867905,62.614548 77.797424,63.234703 79.315086,64.169518 
	C79.758850,62.165192 80.528511,60.162354 80.537659,58.156040 
	C80.544334,56.693859 79.001503,55.195633 79.083763,53.767284 
	C79.855141,40.373379 70.801086,31.322626 65.108620,19.814606 
	C58.983212,30.433393 59.766308,40.363243 63.200031,50.342865 
	C63.612431,51.541458 65.433273,52.255447 66.103699,52.794186 
	C66.103699,49.636696 66.103699,46.903873 66.103699,43.699509 
	C67.717354,44.193363 68.732765,44.504124 69.883629,44.856342 
	C69.180237,42.356606 68.593552,40.271645 68.006874,38.186684 
	C68.340446,38.025139 68.674011,37.863594 69.007576,37.702049 
	C70.124229,39.171085 71.240875,40.640125 72.779282,42.723301 
M78.200890,119.081039 
	C79.640129,121.326065 81.079369,123.571091 82.659386,126.035728 
	C83.492226,124.039780 83.835243,122.285538 84.815201,121.027405 
	C89.554657,114.942566 88.766403,108.215675 87.173126,101.482315 
	C85.643517,95.017990 79.170029,93.009315 74.156258,97.427124 
	C73.083603,98.372284 72.875221,100.298325 72.359856,101.550934 
	C75.365105,100.913445 78.508362,99.445671 79.244812,100.232002 
	C82.115280,103.296913 84.223000,107.076187 86.614410,110.589783 
	C86.204605,110.910400 85.794800,111.231026 85.384995,111.551651 
	C82.388367,111.054649 79.391731,110.557648 75.071373,109.841103 
	C76.140678,113.139069 76.991684,115.763718 78.200890,119.081039 
M118.204399,123.190186 
	C118.550285,124.060226 118.896179,124.930275 119.400887,126.199806 
	C122.244499,120.951073 126.836784,116.822830 124.624367,110.315880 
	C121.957947,110.721863 119.167770,111.146690 116.277046,111.586830 
	C118.670639,100.453178 123.106316,97.192200 129.173508,102.624947 
	C129.244873,101.197182 129.696487,99.478485 129.283264,99.236488 
	C126.684807,97.714676 123.932846,95.644524 121.153419,95.521439 
	C119.237671,95.436600 116.092293,97.808044 115.404243,99.755699 
	C112.639198,107.582748 112.667236,115.422829 118.204399,123.190186 
z"/>
<path fill="#0C0C0B" opacity="1.000000" stroke="none" 
	d="
M116.259796,181.542007 
	C115.732353,187.534729 112.267319,191.514496 106.763855,192.895660 
	C99.984634,194.597000 93.080292,194.534149 88.301651,188.099884 
	C86.555984,185.749420 85.504692,182.883240 84.426712,179.802551 
	C86.628754,180.167831 88.540710,180.982910 90.452660,181.797974 
	C90.731491,181.447113 91.010315,181.096268 91.289146,180.745407 
	C85.774284,176.817627 84.419266,171.372849 85.391830,165.137543 
	C88.008720,168.255524 90.268723,171.445404 92.800621,175.019043 
	C93.000336,173.094055 93.155434,171.599106 93.375954,169.473587 
	C98.606743,174.187454 103.548721,174.168808 108.618492,169.600037 
	C108.878845,171.330963 109.060776,172.540497 109.463043,175.214920 
	C111.298218,171.868271 112.348000,169.524017 113.817398,167.481689 
	C114.421570,166.641968 115.929482,166.452438 117.003113,166.371582 
	C117.312904,168.488785 117.645874,170.201523 118.035027,172.248962 
	C118.769363,173.068298 119.447517,173.552948 120.125671,174.037598 
	C119.094688,176.395554 118.063705,178.753494 116.609947,180.863617 
	C116.346451,178.984772 116.505714,177.353745 116.606712,176.319366 
	C114.687462,177.628113 112.680199,178.996857 110.672943,180.365601 
	C110.896454,180.757736 111.119965,181.149872 111.343475,181.542007 
	C112.982254,181.542007 114.621025,181.542007 116.259796,181.542007 
z"/>
<path fill="#2C2C2C" opacity="1.000000" stroke="none" 
	d="
M85.034927,165.209427 
	C84.419266,171.372849 85.774284,176.817627 91.289146,180.745407 
	C91.010315,181.096268 90.731491,181.447113 90.452660,181.797974 
	C88.540710,180.982910 86.628754,180.167831 84.309601,179.443253 
	C83.902390,179.533752 83.931129,179.507126 84.137985,179.404236 
	C84.163452,179.322342 83.982071,179.343323 83.800690,179.364319 
	C82.834526,177.482452 81.868362,175.600601 81.222969,173.144150 
	C81.395836,170.057419 81.247940,167.545288 81.100037,165.033157 
	C81.323296,163.610764 81.546547,162.188385 81.830750,160.333282 
	C82.323273,160.650482 82.754829,161.400391 83.153381,162.789612 
	C83.758553,164.022400 84.396744,164.615921 85.034927,165.209427 
z"/>
<path fill="#161616" opacity="1.000000" stroke="none" 
	d="
M120.437294,173.920410 
	C119.447517,173.552948 118.769363,173.068298 118.015160,171.830170 
	C117.967316,169.395676 117.995522,167.714676 118.047493,165.618179 
	C117.987747,163.824890 117.904236,162.447098 117.820724,161.069305 
	C118.277138,161.046463 118.733543,161.023605 119.532669,160.996185 
	C120.166550,165.262146 120.457733,169.532684 120.437294,173.920410 
z"/>
<path fill="#161616" opacity="1.000000" stroke="none" 
	d="
M116.256569,181.512543 
	C114.621025,181.542007 112.982254,181.542007 111.343475,181.542007 
	C111.119965,181.149872 110.896454,180.757736 110.672943,180.365601 
	C112.680199,178.996857 114.687462,177.628113 116.606712,176.319366 
	C116.505714,177.353745 116.346451,178.984772 116.250473,181.063904 
	C116.313766,181.511993 116.253342,181.483063 116.256569,181.512543 
z"/>
<path fill="#0C0C0B" opacity="1.000000" stroke="none" 
	d="
M80.980606,165.384903 
	C81.247940,167.545288 81.395836,170.057419 81.276344,172.782990 
	C80.959686,170.576508 80.910423,168.156570 80.980606,165.384903 
z"/>
<path fill="#0C0C0B" opacity="1.000000" stroke="none" 
	d="
M83.819962,179.414886 
	C83.982071,179.343323 84.163452,179.322342 84.136993,179.413574 
	C83.929146,179.525772 83.839241,179.465454 83.819962,179.414886 
z"/>
<path fill="#E5E3E4" opacity="1.000000" stroke="none" 
	d="
M117.561958,160.857788 
	C117.904236,162.447098 117.987747,163.824890 117.794998,165.648499 
	C117.354599,166.051941 117.190445,166.009552 117.026299,165.967148 
	C115.929482,166.452438 114.421570,166.641968 113.817398,167.481689 
	C112.348000,169.524017 111.298218,171.868271 109.463043,175.214920 
	C109.060776,172.540497 108.878845,171.330963 108.618492,169.600037 
	C103.548721,174.168808 98.606743,174.187454 93.375954,169.473587 
	C93.155434,171.599106 93.000336,173.094055 92.800621,175.019043 
	C90.268723,171.445404 88.008720,168.255524 85.391830,165.137543 
	C84.396744,164.615921 83.758553,164.022400 83.205132,163.121246 
	C84.713554,160.360992 86.791985,158.773529 84.081932,154.975204 
	C82.259926,152.421524 82.499817,145.978470 84.534615,143.640457 
	C87.843857,139.838058 90.770294,135.773590 94.071808,132.035370 
	C94.904770,131.092224 98.759186,132.817535 101.991608,133.471725 
	C106.561127,129.380768 108.543785,129.967361 111.229546,137.323654 
	C111.512329,138.098190 111.741364,139.407745 112.218491,139.519897 
	C121.956543,141.809219 117.588539,149.531403 118.345978,155.252045 
	C118.385445,155.550125 118.180824,155.880539 118.061195,156.295135 
	C117.191376,156.216232 116.309448,156.136246 115.086243,156.025284 
	C115.922333,157.768021 116.612762,159.207153 117.561958,160.857788 
z"/>
<path fill="#DEDCDD" opacity="1.000000" stroke="none" 
	d="
M72.568405,42.416229 
	C71.240875,40.640125 70.124229,39.171085 69.007576,37.702049 
	C68.674011,37.863594 68.340446,38.025139 68.006874,38.186684 
	C68.593552,40.271645 69.180237,42.356606 69.883629,44.856342 
	C68.732765,44.504124 67.717354,44.193363 66.103699,43.699509 
	C66.103699,46.903873 66.103699,49.636696 66.103699,52.794186 
	C65.433273,52.255447 63.612431,51.541458 63.200031,50.342865 
	C59.766308,40.363243 58.983212,30.433393 65.108620,19.814606 
	C70.801086,31.322626 79.855141,40.373379 79.083763,53.767284 
	C79.001503,55.195633 80.544334,56.693859 80.537659,58.156040 
	C80.528511,60.162354 79.758850,62.165192 79.315086,64.169518 
	C77.797424,63.234703 75.867905,62.614548 74.857567,61.292133 
	C73.299072,59.252266 74.968811,52.537132 77.401611,50.771015 
	C75.881126,48.123772 74.330200,45.423538 72.568405,42.416229 
z"/>
<path fill="#DBDADA" opacity="1.000000" stroke="none" 
	d="
M121.783478,64.046120 
	C121.194038,62.273975 120.604599,60.501827 120.374535,58.371330 
	C121.136505,57.302273 121.539101,56.591572 121.941696,55.880867 
	C121.608948,47.775543 124.955040,40.796604 128.753906,33.992126 
	C131.246170,29.527988 133.936783,25.174583 136.970764,20.040201 
	C142.398193,29.140036 142.415359,38.067772 139.603195,47.130123 
	C138.809845,49.686703 138.867661,53.568863 134.529404,53.841900 
	C135.038116,49.947868 135.512924,46.313366 136.032639,42.335072 
	C134.963699,42.634068 134.164841,42.857517 132.931763,43.202427 
	C133.332825,40.793354 133.698410,38.597496 134.063980,36.401634 
	C133.763885,36.249767 133.463776,36.097900 133.163681,35.946037 
	C130.495773,40.570271 127.774551,45.165722 125.239403,49.861629 
	C124.975220,50.350983 125.813713,51.435631 126.589111,52.549091 
	C127.098106,53.050499 127.158577,53.246887 127.219055,53.443275 
	C126.977951,54.248737 126.736855,55.054195 126.830322,56.388763 
	C127.257919,57.177086 127.350945,57.436295 127.443954,57.695503 
	C127.222687,58.114281 127.001419,58.533058 126.835915,59.542679 
	C126.954903,60.432076 126.996292,60.733627 127.015854,61.038177 
	C126.696930,61.597507 126.378014,62.156837 125.959305,63.081554 
	C125.859512,63.446938 125.952431,63.500126 125.952431,63.500126 
	C125.478333,63.614021 125.004242,63.727913 123.827515,63.887878 
	C122.677757,63.971344 122.230614,64.008736 121.783478,64.046120 
z"/>
<path fill="#DCDADA" opacity="1.000000" stroke="none" 
	d="
M78.021790,118.734711 
	C76.991684,115.763718 76.140678,113.139069 75.071373,109.841103 
	C79.391731,110.557648 82.388367,111.054649 85.384995,111.551651 
	C85.794800,111.231026 86.204605,110.910400 86.614410,110.589783 
	C84.223000,107.076187 82.115280,103.296913 79.244812,100.232002 
	C78.508362,99.445671 75.365105,100.913445 72.359856,101.550934 
	C72.875221,100.298325 73.083603,98.372284 74.156258,97.427124 
	C79.170029,93.009315 85.643517,95.017990 87.173126,101.482315 
	C88.766403,108.215675 89.554657,114.942566 84.815201,121.027405 
	C83.835243,122.285538 83.492226,124.039780 82.659386,126.035728 
	C81.079369,123.571091 79.640129,121.326065 78.021790,118.734711 
z"/>
<path fill="#DAD8D9" opacity="1.000000" stroke="none" 
	d="
M118.094742,122.839478 
	C112.667236,115.422829 112.639198,107.582748 115.404243,99.755699 
	C116.092293,97.808044 119.237671,95.436600 121.153419,95.521439 
	C123.932846,95.644524 126.684807,97.714676 129.283264,99.236488 
	C129.696487,99.478485 129.244873,101.197182 129.173508,102.624947 
	C123.106316,97.192200 118.670639,100.453178 116.277046,111.586830 
	C119.167770,111.146690 121.957947,110.721863 124.624367,110.315880 
	C126.836784,116.822830 122.244499,120.951073 119.400887,126.199806 
	C118.896179,124.930275 118.550285,124.060226 118.094742,122.839478 
z"/>
<path fill="#C8C7C7" opacity="1.000000" stroke="none" 
	d="
M121.584732,55.931511 
	C121.539101,56.591572 121.136505,57.302273 120.441269,58.015297 
	C120.508339,57.339130 120.868057,56.660641 121.584732,55.931511 
z"/>
<path fill="#C8C7C7" opacity="1.000000" stroke="none" 
	d="
M127.291557,61.030876 
	C126.996292,60.733627 126.954903,60.432076 126.867249,59.906326 
	C127.359642,59.828445 127.876472,59.977753 128.393295,60.127060 
	C128.117950,60.425896 127.842606,60.724735 127.291557,61.030876 
z"/>
<path fill="#C8C7C7" opacity="1.000000" stroke="none" 
	d="
M121.853218,64.375046 
	C122.230614,64.008736 122.677757,63.971344 123.461563,63.930595 
	C123.623764,64.542427 123.449295,65.157616 123.274834,65.772804 
	C122.824211,65.416527 122.373581,65.060249 121.853218,64.375046 
z"/>
<path fill="#C8C7C7" opacity="1.000000" stroke="none" 
	d="
M127.696747,57.541618 
	C127.350945,57.436295 127.257919,57.177086 127.077919,56.514038 
	C127.310478,56.536045 127.630005,56.961891 127.696747,57.541618 
z"/>
<path fill="#C8C7C7" opacity="1.000000" stroke="none" 
	d="
M126.117783,63.561672 
	C125.952431,63.500126 125.859512,63.446938 125.869011,63.394562 
	C126.013382,63.435863 126.148254,63.529541 126.117783,63.561672 
z"/>
<path fill="#C8C7C7" opacity="1.000000" stroke="none" 
	d="
M127.470390,53.271450 
	C127.158577,53.246887 127.098106,53.050499 127.007454,52.547363 
	C127.225426,52.526951 127.473579,52.813290 127.470390,53.271450 
z"/>
<path fill="#5D5D5D" opacity="1.000000" stroke="none" 
	d="
M117.003113,166.371582 
	C117.190445,166.009552 117.354599,166.051941 117.771240,166.063995 
	C117.995522,167.714676 117.967316,169.395676 117.958977,171.495483 
	C117.645874,170.201523 117.312904,168.488785 117.003113,166.371582 
z"/>
</svg>